<svg id="Calque_1" data-name="Calque 1" xmlns="http://www.w3.org/2000/svg" viewBox="0 0 448.43 484"><defs><style>.cls-1,.cls-4{fill:none;stroke-width:9px;}.cls-1,.cls-3,.cls-4{stroke:#000;}.cls-1,.cls-3{stroke-miterlimit:10;}.cls-2,.cls-3{fill:#fff;}.cls-3{stroke-width:15px;}.cls-4{stroke-linejoin:round;}</style></defs><path class="cls-1" d="M413,104.5V500a5,5,0,0,1-5,5H35a5,5,0,0,1-5-5V35a5,5,0,0,1,5-5H339.5Z" transform="translate(-25.5 -25.5)"/><rect x="34.5" y="49.5" width="228.53" height="13"/><rect x="34.5" y="74.5" width="250" height="13"/><rect x="34.96" y="99.5" width="281.54" height="13"/><rect x="34.5" y="146.5" width="265.1" height="13"/><rect x="34.5" y="171.5" width="293.43" height="13"/><rect x="34.5" y="196.5" width="285.21" height="13"/><rect x="34.5" y="221.5" width="308.06" height="13"/><rect x="34.5" y="246.5" width="274.24" height="13"/><rect x="34.5" y="271.5" width="260.53" height="13"/><rect x="34.5" y="296.5" width="299.83" height="13"/><rect x="34.5" y="321.5" width="330" height="13"/><rect x="34.5" y="346.5" width="281.55" height="13"/><rect x="34.5" y="371.5" width="270.58" height="13"/><rect x="34.5" y="396.5" width="291.61" height="13"/><rect x="34.5" y="421.5" width="137.12" height="13"/><circle class="cls-2" cx="276.33" cy="179.33" r="91"/><path d="M446.79,372.93a9,9,0,0,1-6.37-2.64L320.21,250.08a9,9,0,0,1,0-12.72l14.15-14.15a9,9,0,0,1,12.72,0L467.29,343.42a9,9,0,0,1,0,12.73l-14.14,14.14A8.94,8.94,0,0,1,446.79,372.93Z" transform="translate(-25.5 -25.5)"/><path class="cls-2" d="M340.72,224.58a5,5,0,0,1,3.54,1.46L464.47,346.25a5,5,0,0,1,0,7.07l-14.15,14.15a5,5,0,0,1-7.07,0L323,247.26a5,5,0,0,1,0-7.07L337.19,226a5,5,0,0,1,3.53-1.46m0-8a12.89,12.89,0,0,0-9.19,3.81l-14.14,14.14a13,13,0,0,0,0,18.38L437.6,373.12a13,13,0,0,0,18.38,0L470.12,359a13,13,0,0,0,0-18.38L349.91,220.39a12.89,12.89,0,0,0-9.19-3.81Z" transform="translate(-25.5 -25.5)"/><circle class="cls-3" cx="276.33" cy="179.33" r="75"/><rect x="294.33" y="154.83" width="15" height="100" transform="translate(-81.93 247.92) rotate(-45)"/><rect x="294.33" y="154.83" width="15" height="100" transform="translate(344.92 537.59) rotate(-135)"/><polygon class="cls-4" points="313.33 4.5 313.33 79.5 387.5 79.38 313.33 4.5"/></svg>